<?xml version="1.0" standalone="no"?>
<!DOCTYPE svg PUBLIC "-//W3C//DTD SVG 20010904//EN"
 "http://www.w3.org/TR/2001/REC-SVG-20010904/DTD/svg10.dtd">
<svg version="1.0" xmlns="http://www.w3.org/2000/svg"
 width="512.000000pt" height="512.000000pt" viewBox="0 0 512.000000 512.000000"
 preserveAspectRatio="xMidYMid meet">

<g transform="translate(0.000000,512.000000) scale(0.100000,-0.100000)"
fill="#000000" stroke="none">
<path d="M2295 5109 c-426 -37 -825 -173 -1155 -394 -544 -363 -872 -957 -967
-1745 -24 -200 -24 -620 0 -820 75 -623 299 -1130 660 -1493 318 -319 757
-537 1248 -617 679 -110 1376 19 1877 350 512 337 846 887 961 1580 40 240 59
563 41 674 -39 243 -185 416 -427 509 l-58 22 -987 3 c-1100 3 -1053 5 -1198
-66 -105 -51 -221 -168 -273 -273 -88 -180 -89 -374 0 -556 52 -109 167 -224
276 -276 135 -66 147 -67 775 -67 l563 0 -7 -22 c-16 -52 -84 -203 -116 -255
-105 -175 -302 -318 -514 -372 -305 -79 -748 -61 -991 40 -144 61 -293 181
-380 309 -99 146 -171 352 -209 595 -23 148 -23 497 -1 647 75 502 293 811
657 931 176 58 200 60 1020 67 741 6 756 6 820 27 203 69 362 237 414 440 21
79 21 228 0 307 -42 161 -178 329 -326 400 -138 66 -135 66 -908 64 -382 0
-740 -5 -795 -9z m1528 -184 c163 -42 281 -155 322 -309 22 -82 16 -198 -14
-276 -42 -109 -139 -207 -251 -252 -55 -23 -59 -23 -805 -29 -812 -6 -821 -7
-1020 -64 -404 -117 -664 -409 -780 -875 -55 -218 -76 -511 -56 -760 75 -902
544 -1331 1421 -1297 494 20 811 177 1027 510 59 90 105 192 148 331 41 128
40 162 -2 196 -25 20 -40 20 -657 20 -687 0 -694 0 -798 57 -156 85 -250 277
-221 449 31 179 155 313 330 359 88 23 1900 22 1988 -1 150 -39 274 -162 315
-314 22 -80 10 -427 -21 -615 -19 -120 -19 -118 -38 -101 -25 23 -86 46 -123
46 -43 0 -113 -36 -138 -70 -11 -15 -31 -72 -46 -127 -45 -173 -85 -281 -155
-421 -157 -313 -379 -530 -714 -697 -162 -80 -329 -139 -495 -175 -167 -36
-177 -39 -210 -66 -17 -15 -38 -40 -47 -57 -21 -42 -21 -129 1 -162 10 -15 15
-30 11 -33 -14 -15 -459 -6 -585 12 -874 119 -1473 602 -1735 1401 -188 571
-188 1341 0 1910 253 768 817 1248 1629 1385 202 34 285 37 991 39 566 1 680
-1 728 -14z"/>
</g>
</svg>
